<?xml version='1.0' encoding='utf-8'?>
<svg xmlns="http://www.w3.org/2000/svg" width="5e3" height="5e3" version="1.1" viewBox="0 0 1322.9 1322.9"> <g transform="translate(0 1025.9)"> <g transform="matrix(31.182 0 0 31.182 2966.8 -2305.8)" stroke-width=".03207"> <path d="m-73.93 41.469a20.789 20.789 0 0 0-1.7723 0.0886 20.789 20.789 0 0 1 1.7723-0.0886zm2.0298 0.10159a20.789 20.789 0 0 1 1.2627 0.18601 20.789 20.789 0 0 0-1.2627-0.18601zm-4.8295 0.11172a20.789 20.789 0 0 0-1.0314 0.15562 20.789 20.789 0 0 1 1.0314-0.15562zm6.877 0.19304a20.789 20.789 0 0 1 1.3871 0.34866 20.789 20.789 0 0 0-1.3871-0.34866zm-8.9211 0.19023a20.789 20.789 0 0 0-1.0044 0.25636 20.789 20.789 0 0 1 1.0044-0.25636zm10.932 0.31743a20.789 20.789 0 0 1 1.4416 0.52032 20.789 20.789 0 0 0-1.4416-0.52032zm-12.923 0.26677a20.789 20.789 0 0 0-0.9756 0.35598 20.789 20.789 0 0 1 0.9756-0.35598zm14.873 0.43899a20.789 20.789 0 0 1 1.5188 0.72688 20.789 20.789 0 0 0-1.5188-0.72688zm-16.794 0.33994a20.789 20.789 0 0 0-0.9384 0.45363 20.789 20.789 0 0 1 0.9384-0.45363zm18.662 0.55578a20.789 20.789 0 0 1 1.5235 0.92611 20.789 20.789 0 0 0-1.5235-0.92611zm-20.499 0.41338a20.789 20.789 0 0 0-0.8865 0.5434 20.789 20.789 0 0 1 0.8865-0.5434zm22.271 0.66553a20.789 20.789 0 0 1 1.488 1.1222 20.789 20.789 0 0 0-1.488-1.1222zm-23.999 0.4798a20.789 20.789 0 0 0-0.831 0.63175 20.789 20.789 0 0 1 0.831-0.63175zm25.655 0.7702a20.789 20.789 0 0 1 1.5064 1.3932 20.789 20.789 0 0 0-1.5064-1.3932zm-27.262 0.54255a20.789 20.789 0 0 0-0.7649 0.71281 20.789 20.789 0 0 1 0.7649-0.71281zm28.781 0.86307-29.381 29.381a20.789 20.789 0 0 0 14.527 5.9458 20.789 20.789 0 0 0 20.789-20.789 20.789 20.789 0 0 0-5.9346-14.539zm-29.381 29.381a20.789 20.789 0 0 1-1.2641-1.3592 20.789 20.789 0 0 0 1.2641 1.3592zm-0.8681-28.777a20.789 20.789 0 0 0-0.6895 0.78484 20.789 20.789 0 0 1 0.6895-0.78484zm-1.3136 1.606a20.789 20.789 0 0 0-0.6084 0.85069 20.789 20.789 0 0 1 0.6084-0.85069zm-1.1482 1.7309a20.789 20.789 0 0 0-0.5194 0.90556 20.789 20.789 0 0 1 0.5194-0.90556zm-0.9677 1.8336a20.789 20.789 0 0 0-0.428 0.9565 20.789 20.789 0 0 1 0.428-0.9565zm-0.7801 1.9209a20.789 20.789 0 0 0-0.3312 0.99618 20.789 20.789 0 0 1 0.3312-0.99618zm-0.5856 1.9935a20.789 20.789 0 0 0-0.2296 1.0221 20.789 20.789 0 0 1 0.2296-1.0221zm-0.3838 2.043a20.789 20.789 0 0 0-0.1255 1.0344 20.789 20.789 0 0 1 0.1255-1.0344zm-0.2142 2.8062a20.789 20.789 0 0 0 0.093 1.8061 20.789 20.789 0 0 1-0.093-1.8061zm0.199 2.6809a20.789 20.789 0 0 0 0.186 1.2202 20.789 20.789 0 0 1-0.186-1.2202zm0.3512 1.9552a20.789 20.789 0 0 0 0.3394 1.322 20.789 20.789 0 0 1-0.3394-1.322zm0.5349 1.9105a20.789 20.789 0 0 0 0.5145 1.4036 20.789 20.789 0 0 1-0.5145-1.4036zm0.7185 1.8592a20.789 20.789 0 0 0 0.7032 1.4509 20.789 20.789 0 0 1-0.7032-1.4509zm0.8954 1.7858a20.789 20.789 0 0 0 0.9039 1.4701 20.789 20.789 0 0 1-0.9039-1.4701zm1.0634 1.6932a20.789 20.789 0 0 0 1.111 1.4577 20.789 20.789 0 0 1-1.111-1.4577z" fill="#e49f15" fill-rule="nonzero" style="paint-order:stroke fill markers"/> <path d="m-73.93 41.469a20.789 20.789 0 0 0-20.789 20.789 20.789 20.789 0 0 0 6.2613 14.843l29.381-29.381a20.789 20.789 0 0 0-14.854-6.25z" fill="#ffc20e" fill-rule="nonzero" style="paint-order:stroke fill markers"/> <path d="m-73.432 52.261c-0.1609-0.0011-0.3272 5e-3 -0.4987 0.0186-0.1175-9e-3 -0.2327-0.01511-0.3452-0.01759-1.6876-0.0364-2.8228 0.6998-3.5905 1.9513-0.6828 1.9977-0.082 2.7098 0 4.255-0.6546 0.2027 0.3728 3.3172 0.8072 3.1052 0.099 0.38542 0.1507 1.1012 0.6258 1.3079l-0.045 0.9555-0.1364 0.0455-0.2728 0.91003-0.3189-0.13643-0.8191 1.0465-5.6906 2.3198c-0.7445 0.52083-0.7692 2.79-1.1343 4.2323l10.787 10.786a20.789 20.789 0 0 0 0.1338 5e-3 20.789 20.789 0 0 0 19.457-13.499l-16.164-16.164c-0.028-0.028-0.055-0.0561-0.083-0.0832l-0.034-0.0336-0.0011 0.0021c-0.6779-0.63556-1.5496-0.99898-2.6758-1.0067z" opacity=".5"/> <path d="m-74.275 52.262c-1.6876-0.0364-2.8231 0.70006-3.5908 1.9516-0.6828 1.9978-0.082 2.7093 0 4.2545-0.6546 0.2027 0.3732 3.3174 0.8076 3.1054 0.099 0.38542 0.1506 1.1012 0.6258 1.308l-0.045 0.95558-0.1367 0.0455-0.273 0.91003-0.3185-0.13666-0.8189 1.0467-5.691 2.3194c-0.7445 0.52083-0.7693 2.7903-1.1344 4.2326h21.841c-0.3651-1.4423-0.3895-3.7118-1.134-4.2326l-5.691-2.3194-0.8189-1.0467-0.3186 0.13666-0.2729-0.91003-0.1367-0.0455-0.045-0.95558c0.4752-0.20678 0.5273-0.92258 0.6258-1.308 0.4344 0.21199 1.4622-2.9027 0.8076-3.1054 0.082-1.5452 0.6828-2.2568 0-4.2545-0.8189-1.335-2.0566-2.0837-3.936-1.9338-0.1175-9e-3 -0.2324-0.0154-0.3449-0.01781z" fill="#fff"/> </g> </g> </svg>